<svg xmlns="http://www.w3.org/2000/svg" width="398.928" height="118.236" viewBox="0 0 398.928 118.236">
  <g id="Library" transform="translate(0 -0.124)">
    <path id="Path_102079" data-name="Path 102079" d="M141.792,50.968h17.024V61H128.8V7.648h13Zm29.759-36.784a8.107,8.107,0,0,1-5.624-1.976A6.7,6.7,0,0,1,163.8,7.192a6.546,6.546,0,0,1,2.128-5.016A7.926,7.926,0,0,1,171.551.124a7.558,7.558,0,0,1,5.472,2.052,6.443,6.443,0,0,1,2.2,5.016,6.593,6.593,0,0,1-2.2,5.016A7.724,7.724,0,0,1,171.551,14.184Zm6.46,4.408V61h-13V18.592Zm22.414,6a13.374,13.374,0,0,1,5.244-4.788,16.377,16.377,0,0,1,7.828-1.824,17.561,17.561,0,0,1,9.5,2.66,18.176,18.176,0,0,1,6.688,7.6,25.024,25.024,0,0,1,2.508,11.476,25.5,25.5,0,0,1-2.508,11.552A18.709,18.709,0,0,1,223,58.948a17.561,17.561,0,0,1-9.5,2.66,16.667,16.667,0,0,1-7.828-1.748,14.1,14.1,0,0,1-5.244-4.788V61h-13V4.76h13ZM218.969,39.72a10.272,10.272,0,0,0-2.736-7.6,8.733,8.733,0,0,0-6.612-2.812,8.887,8.887,0,0,0-6.612,2.812,10.714,10.714,0,0,0-2.66,7.676,10.713,10.713,0,0,0,2.66,7.676,9.18,9.18,0,0,0,13.224,0A10.809,10.809,0,0,0,218.969,39.72Zm33.038-14.06a16.783,16.783,0,0,1,5.7-5.472,14.488,14.488,0,0,1,7.6-2.052V31.892h-3.572q-4.864,0-7.3,2.128-2.433,2.052-2.432,7.3V61h-13V18.592h13Zm16.928,14.06a25.669,25.669,0,0,1,2.432-11.476,18.678,18.678,0,0,1,6.764-7.6,17.559,17.559,0,0,1,9.5-2.66,16.1,16.1,0,0,1,7.828,1.824A13.374,13.374,0,0,1,300.7,24.6v-6h13V61h-13V55a13.967,13.967,0,0,1-5.32,4.788,16.1,16.1,0,0,1-7.828,1.824,17.423,17.423,0,0,1-9.424-2.66,19.234,19.234,0,0,1-6.764-7.676A26.159,26.159,0,0,1,268.935,39.72ZM300.7,39.8a10.538,10.538,0,0,0-2.736-7.676,8.646,8.646,0,0,0-6.536-2.812,8.887,8.887,0,0,0-6.612,2.812q-2.661,2.736-2.66,7.6a10.991,10.991,0,0,0,2.66,7.752,8.887,8.887,0,0,0,6.612,2.812,8.646,8.646,0,0,0,6.536-2.812A10.538,10.538,0,0,0,300.7,39.8ZM336.1,25.66a16.784,16.784,0,0,1,5.7-5.472,14.488,14.488,0,0,1,7.6-2.052V31.892h-3.572q-4.865,0-7.3,2.128-2.433,2.052-2.432,7.3V61h-13V18.592h13Zm62.831-7.068-26.6,62.548H358.344l9.728-21.584L350.82,18.592h14.516l9.8,26.524,9.728-26.524Z"/>
    <path id="Path_102080" data-name="Path 102080" d="M143.707,90.04v2.32h-12.32V102.8h10.4v2.32h-10.4V118h-2.8V90.04Zm14.166,28.28a11.369,11.369,0,0,1-5.56-1.36,10.339,10.339,0,0,1-3.88-3.92,12.231,12.231,0,0,1-1.4-5.96,11.728,11.728,0,0,1,1.44-5.92,9.9,9.9,0,0,1,3.92-3.92,11.741,11.741,0,0,1,11.12,0,9.57,9.57,0,0,1,3.92,3.92,11.728,11.728,0,0,1,1.44,5.92,11.87,11.87,0,0,1-1.44,5.92,10.094,10.094,0,0,1-3.96,3.96A11.594,11.594,0,0,1,157.873,118.32Zm0-2.44a8.515,8.515,0,0,0,4-.96,7.515,7.515,0,0,0,2.96-2.96,10.93,10.93,0,0,0,.04-9.72,7.187,7.187,0,0,0-2.96-2.96,8.5,8.5,0,0,0-8,0,7.2,7.2,0,0,0-2.96,2.96,9.917,9.917,0,0,0-1.08,4.84,10.152,10.152,0,0,0,1.08,4.88,7.605,7.605,0,0,0,2.92,2.96A8.518,8.518,0,0,0,157.873,115.88ZM192.9,96.16V118h-2.8v-3.84a6.708,6.708,0,0,1-2.96,3.12,9.272,9.272,0,0,1-4.48,1.08,8.821,8.821,0,0,1-6.4-2.4q-2.479-2.44-2.48-7.04V96.16h2.76V108.6a7.674,7.674,0,0,0,1.76,5.44,6.44,6.44,0,0,0,4.88,1.88,6.588,6.588,0,0,0,5.04-2q1.881-2,1.88-5.88V96.16Zm16.633-.4a8.738,8.738,0,0,1,6.4,2.44q2.479,2.4,2.48,7V118h-2.76V105.52a7.565,7.565,0,0,0-1.8-5.44,6.307,6.307,0,0,0-4.84-1.88,6.587,6.587,0,0,0-5.04,2,8.286,8.286,0,0,0-1.88,5.88V118h-2.8V96.16h2.8v3.72a7.025,7.025,0,0,1,3-3.04A9.048,9.048,0,0,1,209.53,95.76Zm13.792,11.28a12.2,12.2,0,0,1,1.36-5.88,9.608,9.608,0,0,1,3.72-3.92,10.518,10.518,0,0,1,5.4-1.4,9.866,9.866,0,0,1,5.2,1.4,8.563,8.563,0,0,1,3.4,3.64V88.4h2.8V118h-2.8v-4.88a8.531,8.531,0,0,1-3.28,3.76,9.823,9.823,0,0,1-5.36,1.44,10.521,10.521,0,0,1-5.4-1.4,9.88,9.88,0,0,1-3.72-3.96A12.741,12.741,0,0,1,223.322,107.04Zm19.08.04a9.615,9.615,0,0,0-1.08-4.64,7.662,7.662,0,0,0-2.96-3.08,7.908,7.908,0,0,0-4.08-1.08,8.308,8.308,0,0,0-4.16,1.04,7.476,7.476,0,0,0-2.92,3.04,9.864,9.864,0,0,0-1.04,4.68,10.258,10.258,0,0,0,1.04,4.72,7.756,7.756,0,0,0,2.92,3.08,8.311,8.311,0,0,0,4.16,1.04,7.908,7.908,0,0,0,4.08-1.08,7.662,7.662,0,0,0,2.96-3.08A9.615,9.615,0,0,0,242.4,107.08Zm28.953-1.12q0,1.44-.08,2.2h-18.12a8.79,8.79,0,0,0,1.2,4.24,7.2,7.2,0,0,0,2.84,2.68,8.459,8.459,0,0,0,3.84.88,7.622,7.622,0,0,0,4.56-1.32,6.171,6.171,0,0,0,2.48-3.56h2.96a9.31,9.31,0,0,1-3.44,5.24,10.448,10.448,0,0,1-6.56,2,11.136,11.136,0,0,1-5.52-1.36,10.046,10.046,0,0,1-3.84-3.92,13.739,13.739,0,0,1,0-11.92,9.447,9.447,0,0,1,3.8-3.92,11.223,11.223,0,0,1,5.56-1.36,10.562,10.562,0,0,1,5.44,1.36,9.19,9.19,0,0,1,3.6,3.68A10.2,10.2,0,0,1,271.355,105.96Zm-2.84-.08a7.654,7.654,0,0,0-1-4.16,6.491,6.491,0,0,0-2.76-2.6,8.469,8.469,0,0,0-3.84-.88,7.628,7.628,0,0,0-5.32,2,7.985,7.985,0,0,0-2.44,5.64Zm6.682,1.16a12.2,12.2,0,0,1,1.36-5.88,9.608,9.608,0,0,1,3.72-3.92,10.518,10.518,0,0,1,5.4-1.4,9.867,9.867,0,0,1,5.2,1.4,8.563,8.563,0,0,1,3.4,3.64V88.4h2.8V118h-2.8v-4.88a8.531,8.531,0,0,1-3.28,3.76,9.823,9.823,0,0,1-5.36,1.44,10.521,10.521,0,0,1-5.4-1.4,9.88,9.88,0,0,1-3.72-3.96A12.741,12.741,0,0,1,275.2,107.04Zm19.08.04a9.615,9.615,0,0,0-1.08-4.64,7.662,7.662,0,0,0-2.96-3.08,7.908,7.908,0,0,0-4.08-1.08A8.308,8.308,0,0,0,282,99.32a7.476,7.476,0,0,0-2.92,3.04,9.864,9.864,0,0,0-1.04,4.68,10.258,10.258,0,0,0,1.04,4.72,7.756,7.756,0,0,0,2.92,3.08,8.311,8.311,0,0,0,4.16,1.04,7.908,7.908,0,0,0,4.08-1.08,7.662,7.662,0,0,0,2.96-3.08A9.615,9.615,0,0,0,294.277,107.08Zm18.209-15.24V89.32h6.8V118h-2.84V91.84Zm16.76,18.52a6.666,6.666,0,0,0,2,4,6.176,6.176,0,0,0,4.28,1.4,6.073,6.073,0,0,0,5.56-2.92q1.839-2.959,1.68-9.76a6.406,6.406,0,0,1-2.92,3.48,9.484,9.484,0,0,1-4.88,1.24,9.218,9.218,0,0,1-6.76-2.52,9.461,9.461,0,0,1-2.52-7,11,11,0,0,1,1.04-4.84,7.772,7.772,0,0,1,3.16-3.4,10.141,10.141,0,0,1,5.2-1.24q5.679,0,7.92,3.72,2.239,3.68,2.24,10.6,0,7.48-2.24,11.24-2.2,3.76-7.6,3.76a8.513,8.513,0,0,1-6.16-2.12,9.074,9.074,0,0,1-2.6-5.64Zm6.16-4.96a7.745,7.745,0,0,0,3.44-.76,6.32,6.32,0,0,0,2.56-2.32,6.676,6.676,0,0,0,.96-3.64,7.838,7.838,0,0,0-1.88-5.4,7.554,7.554,0,0,0-10.28-.2,7.089,7.089,0,0,0-1.84,5.12,7.314,7.314,0,0,0,1.84,5.28A6.862,6.862,0,0,0,335.406,105.4Zm18.84,4.96a6.666,6.666,0,0,0,2,4,6.176,6.176,0,0,0,4.28,1.4,6.073,6.073,0,0,0,5.56-2.92q1.839-2.959,1.68-9.76a6.406,6.406,0,0,1-2.92,3.48,9.484,9.484,0,0,1-4.88,1.24,9.218,9.218,0,0,1-6.76-2.52,9.461,9.461,0,0,1-2.52-7,11,11,0,0,1,1.04-4.84,7.772,7.772,0,0,1,3.16-3.4,10.141,10.141,0,0,1,5.2-1.24q5.679,0,7.92,3.72,2.239,3.68,2.24,10.6,0,7.48-2.24,11.24-2.2,3.76-7.6,3.76a8.513,8.513,0,0,1-6.16-2.12,9.074,9.074,0,0,1-2.6-5.64Zm6.16-4.96a7.745,7.745,0,0,0,3.44-.76,6.32,6.32,0,0,0,2.56-2.32,6.676,6.676,0,0,0,.96-3.64,7.838,7.838,0,0,0-1.88-5.4,7.554,7.554,0,0,0-10.28-.2,7.089,7.089,0,0,0-1.84,5.12,7.314,7.314,0,0,0,1.84,5.28A6.862,6.862,0,0,0,360.406,105.4Zm33.2-13.68h-14.64v10.24a7.133,7.133,0,0,1,2.92-2.28,9.5,9.5,0,0,1,4.16-.92,9.63,9.63,0,0,1,5.36,1.36,7.581,7.581,0,0,1,3,3.48,11.333,11.333,0,0,1,.92,4.56,11.717,11.717,0,0,1-1.08,5.08,8.037,8.037,0,0,1-3.24,3.56,11.637,11.637,0,0,1-12.08-.8,9.105,9.105,0,0,1-3.12-5.8h2.76a6.5,6.5,0,0,0,2.4,4.08,7.4,7.4,0,0,0,4.64,1.44,6.544,6.544,0,0,0,5.24-2.04,8.078,8.078,0,0,0,1.8-5.48,7.068,7.068,0,0,0-1.8-5.16,6.81,6.81,0,0,0-5.16-1.88,7.641,7.641,0,0,0-4.08,1.08,6.553,6.553,0,0,0-2.6,2.92h-2.64V89.28h17.24Z"/>
    <path id="Path_102081" data-name="Path 102081" d="M2.482,49.477a1.426,1.426,0,0,1-.051.215A1.426,1.426,0,0,0,2.482,49.477Zm.016-.086a4.933,4.933,0,0,0,.172,1.172,5.107,5.107,0,0,0,2.285,2.992L49.373,80.59a8.048,8.048,0,0,1-.105-1.348c0-4.352,1.883-7.355,6.3-10.051l42.281-25.75a1.341,1.341,0,0,0,0-2.258L52.943,13.832,7.561,41.469c-3.687,2.246-5.055,4.355-5.055,7.777C2.506,49.293,2.5,49.344,2.5,49.391ZM55.08,86.273a5.155,5.155,0,0,1-3.145-1.094L3.709,55.824A7.6,7.6,0,0,1,.268,51.266a6.051,6.051,0,0,1-.254-2.031c0-4.348,1.887-7.348,6.3-10.039l46-28.02a1.185,1.185,0,0,1,1.242,0L99.1,38.91a4.038,4.038,0,0,1,0,6.8L56.818,71.465c-3.691,2.25-5.059,4.355-5.059,7.777a4.854,4.854,0,0,0,1.578,3.766c.019.02.047.035.066.055.086.063.172.121.262.176a3.117,3.117,0,0,0,3.387-.219L99.818,56.973l-3.473-2.387a1.361,1.361,0,0,1-.363-1.816,1.21,1.21,0,0,1,1.727-.379l5.168,3.551a1.336,1.336,0,0,1,.566,1.137,1.314,1.314,0,0,1-.625,1.1L58.3,85.293A6.184,6.184,0,0,1,55.08,86.273Z" fill="#f97316"/>
    <path id="Path_102082" data-name="Path 102082" d="M75.893,102.816a1.23,1.23,0,0,1-1.078-.656,1.351,1.351,0,0,1,.457-1.793L99.818,85.414l-3.473-2.383a1.368,1.368,0,0,1-.363-1.82,1.208,1.208,0,0,1,1.727-.383l5.168,3.555a1.336,1.336,0,0,1,.566,1.137,1.319,1.319,0,0,1-.625,1.1l-26.3,16.02A1.137,1.137,0,0,1,75.893,102.816Z" fill="#f97316"/>
    <path id="Path_102083" data-name="Path 102083" d="M2.482,77.922a1.232,1.232,0,0,1-.051.207A1.232,1.232,0,0,0,2.482,77.922Zm50.145,35.922a1.214,1.214,0,0,1-.625-.176L3.709,84.27A7.628,7.628,0,0,1,.268,79.7a6.012,6.012,0,0,1-.254-2.027c0-4.34,1.879-7.34,6.273-10.023l2.094-1.434a1.213,1.213,0,0,1,1.727.383,1.363,1.363,0,0,1-.367,1.82L7.619,69.875l-.059.035c-3.687,2.246-5.055,4.355-5.055,7.777,0,.047,0,.094-.008.145A4.885,4.885,0,0,0,2.67,79a5.072,5.072,0,0,0,2.285,2.992l48.3,29.4a1.349,1.349,0,0,1,.449,1.793A1.222,1.222,0,0,1,52.627,113.844Z" fill="#f97316"/>
    <path id="Path_102084" data-name="Path 102084" d="M67.389,118.145a1.2,1.2,0,0,1-.613-.172,1.322,1.322,0,0,1-.633-1.141v-7.816l-7.848,4.722a5.444,5.444,0,0,1-5.875.219,7.261,7.261,0,0,1-3.152-6.269c0-4.36,1.883-7.364,6.3-10.055L97.854,71.879a1.337,1.337,0,0,0,0-2.254,1.358,1.358,0,0,1-.453-1.8,1.213,1.213,0,0,1,1.7-.48,4.041,4.041,0,0,1,0,6.809L56.818,99.91c-3.691,2.242-5.059,4.352-5.059,7.778a4.667,4.667,0,0,0,1.906,4,3.119,3.119,0,0,0,3.387-.223l9.719-5.844a1.187,1.187,0,0,1,1.242,0,1.336,1.336,0,0,1,.621,1.137v7.758l6.012-3.8V101.5a5.156,5.156,0,0,0-2.434-4.418,1.353,1.353,0,0,1-.465-1.793,1.205,1.205,0,0,1,1.7-.488,7.814,7.814,0,0,1,3.7,6.7v9.957a1.314,1.314,0,0,1-.609,1.125l-8.5,5.371A1.208,1.208,0,0,1,67.389,118.145Z" fill="#f97316"/>
    <path id="Path_102085" data-name="Path 102085" d="M45.166,64.016a1.178,1.178,0,0,1-.6-.168L6.338,41.48A1.349,1.349,0,0,1,5.854,39.7a1.208,1.208,0,0,1,1.691-.516L45.768,61.551a1.35,1.35,0,0,1,.488,1.789A1.239,1.239,0,0,1,45.166,64.016Z" fill="#f97316"/>
  </g>
</svg>
